<mxfile host="app.diagrams.net" modified="2020-09-20T07:20:41.352Z" agent="5.0 (Windows NT 10.0; Win64; x64) AppleWebKit/537.36 (KHTML, like Gecko) Chrome/76.0.3809.100 Safari/537.36" etag="zDy_kFv0pgC7Pn5IaTEd" version="13.7.3" type="github">
  <diagram id="lqPDKyl0CAgaCKzAyVTL" name="第 1 页">
    <mxGraphModel dx="1053" dy="435" grid="1" gridSize="10" guides="1" tooltips="1" connect="1" arrows="1" fold="1" page="1" pageScale="1" pageWidth="850" pageHeight="1100" math="0" shadow="0">
      <root>
        <mxCell id="0" />
        <mxCell id="1" parent="0" />
        <mxCell id="4h2kGDzfRq3boT5Y0I_H-1" value="frame" style="shape=umlFrame;whiteSpace=wrap;html=1;" parent="1" vertex="1">
          <mxGeometry x="170" y="20" width="460" height="430" as="geometry" />
        </mxCell>
        <mxCell id="4h2kGDzfRq3boT5Y0I_H-2" value="注册" style="ellipse;whiteSpace=wrap;html=1;" parent="1" vertex="1">
          <mxGeometry x="220" y="50" width="140" height="70" as="geometry" />
        </mxCell>
        <object label="消费者" tooltip="消费者" id="4h2kGDzfRq3boT5Y0I_H-3">
          <mxCell style="shape=umlActor;verticalLabelPosition=bottom;verticalAlign=top;html=1;" parent="1" vertex="1">
            <mxGeometry x="50" y="30" width="30" height="60" as="geometry" />
          </mxCell>
        </object>
        <mxCell id="4h2kGDzfRq3boT5Y0I_H-4" value="缴费" style="ellipse;whiteSpace=wrap;html=1;" vertex="1" parent="1">
          <mxGeometry x="210" y="160" width="140" height="70" as="geometry" />
        </mxCell>
        <mxCell id="4h2kGDzfRq3boT5Y0I_H-5" value="管理员" style="shape=umlActor;verticalLabelPosition=bottom;verticalAlign=top;html=1;" vertex="1" parent="1">
          <mxGeometry x="680" y="60" width="30" height="60" as="geometry" />
        </mxCell>
        <mxCell id="4h2kGDzfRq3boT5Y0I_H-6" value="服务员" style="shape=umlActor;verticalLabelPosition=bottom;verticalAlign=top;html=1;" vertex="1" parent="1">
          <mxGeometry x="50" y="260" width="30" height="60" as="geometry" />
        </mxCell>
        <mxCell id="4h2kGDzfRq3boT5Y0I_H-9" value="账户管理" style="ellipse;whiteSpace=wrap;html=1;" vertex="1" parent="1">
          <mxGeometry x="460" y="30" width="140" height="70" as="geometry" />
        </mxCell>
        <mxCell id="4h2kGDzfRq3boT5Y0I_H-10" value="消费" style="ellipse;whiteSpace=wrap;html=1;" vertex="1" parent="1">
          <mxGeometry x="210" y="260" width="140" height="70" as="geometry" />
        </mxCell>
        <mxCell id="4h2kGDzfRq3boT5Y0I_H-11" value="查询余额" style="ellipse;whiteSpace=wrap;html=1;" vertex="1" parent="1">
          <mxGeometry x="460" y="280" width="140" height="70" as="geometry" />
        </mxCell>
        <mxCell id="4h2kGDzfRq3boT5Y0I_H-12" value="扣费" style="ellipse;whiteSpace=wrap;html=1;" vertex="1" parent="1">
          <mxGeometry x="210" y="360" width="140" height="70" as="geometry" />
        </mxCell>
        <mxCell id="4h2kGDzfRq3boT5Y0I_H-13" value="Use" style="endArrow=open;endSize=12;dashed=1;html=1;entryX=0;entryY=0;entryDx=0;entryDy=0;" edge="1" parent="1" target="4h2kGDzfRq3boT5Y0I_H-11">
          <mxGeometry width="160" relative="1" as="geometry">
            <mxPoint x="310" y="230" as="sourcePoint" />
            <mxPoint x="450" y="220" as="targetPoint" />
          </mxGeometry>
        </mxCell>
        <mxCell id="4h2kGDzfRq3boT5Y0I_H-14" value="消费记录" style="ellipse;whiteSpace=wrap;html=1;" vertex="1" parent="1">
          <mxGeometry x="460" y="130" width="140" height="70" as="geometry" />
        </mxCell>
        <mxCell id="4h2kGDzfRq3boT5Y0I_H-15" value="Use" style="endArrow=open;endSize=12;dashed=1;html=1;" edge="1" parent="1" target="4h2kGDzfRq3boT5Y0I_H-11">
          <mxGeometry width="160" relative="1" as="geometry">
            <mxPoint x="350" y="300" as="sourcePoint" />
            <mxPoint x="510" y="300" as="targetPoint" />
          </mxGeometry>
        </mxCell>
        <mxCell id="4h2kGDzfRq3boT5Y0I_H-17" value="Use" style="endArrow=open;endSize=12;dashed=1;html=1;" edge="1" parent="1" target="4h2kGDzfRq3boT5Y0I_H-11">
          <mxGeometry width="160" relative="1" as="geometry">
            <mxPoint x="350" y="380" as="sourcePoint" />
            <mxPoint x="510" y="380" as="targetPoint" />
          </mxGeometry>
        </mxCell>
      </root>
    </mxGraphModel>
  </diagram>
</mxfile>
